<?xml version="1.0" encoding="UTF-8"?>
<svg width="93px" height="117px" viewBox="0 0 93 117" version="1.1" xmlns="http://www.w3.org/2000/svg" xmlns:xlink="http://www.w3.org/1999/xlink">
    <!-- Generator: Sketch 52.2 (67145) - http://www.bohemiancoding.com/sketch -->
    <title>img_Card 4</title>
    <desc>Created with Sketch.</desc>
    <g id="Page-1" stroke="none" stroke-width="1" fill="none" fill-rule="evenodd" stroke-linecap="round">
        <g id="Nails" transform="translate(-1395.000000, -10798.000000)" stroke="#D65E5B" stroke-width="1.5">
            <g id="Add-ons" transform="translate(0.000000, 7920.000000)">
                <g id="Card-4" transform="translate(1365.000000, 2826.000000)">
                    <g id="img_Card-4" transform="translate(83.970574, 111.482432) rotate(-24.000000) translate(-83.970574, -111.482432) translate(47.970574, 48.482432)">
                        <path d="M28,52 C28,52 35.9311203,31.3466389 35.9311203,27.8230439 C35.9311203,24.2994489 34.4492531,14.7263083 33.9483402,12.7097931 C33.4474274,10.6932778 33.3605499,4.48679434 34.9292946,2.13900805 C36.4980393,-0.208778234 37.4584966,0.187587301 37.7222698,0.63065076 C37.986043,1.07371422 40.4896647,13.6438878 42.1209147,18.2849143 C43.7521646,22.9259409 44.0540685,25.6601088 43.4955991,31.7689816 C42.9371296,37.8778544 42.3595021,49.5165023 42.3595021,49.5165023" id="Shape"></path>
                        <path d="M50,52 C50,52 50,37.6579911 50,33.1316605 C50,28.6053299 50.2888532,23.8538839 48.8080196,20.3216539 C47.3271861,16.7894239 42.7650619,3.86650694 41.3627828,3.62212553 C39.9605037,3.37774411 38.5440247,5.51107528 39.0863017,6.39942054" id="Shape"></path>
                        <path d="M47.2119114,16.2824844 C47.6063577,16.428032 48.5785487,17.0001184 49.6375684,17.8128251 C50.696588,18.6255317 53.5806846,20.3013899 54.5454126,27.7916402 C55.5101406,35.2818905 54.9878999,33.7008628 55.3913622,37.3570476 C55.7948246,41.0132323 57.1494424,52.0339032 57.4067224,53.3488816 C57.6640024,54.66386 61.215622,42.4048679 62.0163226,39.8809577 C62.8170233,37.3570476 58.9718425,29.8065265 64.5676828,25.776754 C66.0899229,24.7799155 65.5753629,33.836299 67.612163,38.8629099 C69.6489631,43.8895209 63.0240027,53.4549282 62.5308827,60.0086109 C62.0163226,66.5622935 56.9350423,88.1958091 52.3468821,97.7612164 C49.7526419,103.169595 50.588802,108.917323 51.789442,112.862259 C52.9686421,116.701147 52.0094428,122.403883 48.3217626,124.058211 C44.2052823,125.903422 35.6753724,125.47425 31.4091152,121.478624 C29.2164488,119.42505 28.2861603,117.972274 27.7460583,115.177075 C26.9727827,111.175129 26.4100715,104.303069 25.7454314,102.945672 C24.7627262,100.387115 22.5218277,94.6025643 21.5141476,92.0998635 C20.5064675,89.5971627 18,82.9146862 18,77.3790513 C18,71.8434164 18.25728,59.2270293 18.25728,55.4910238 C18.25728,51.7550183 25.3753604,43.4017063 27.4121606,37.8660715 C29.4489607,32.3304366 30.9159951,27.7916402 31.4091152,27.7916402 C31.9236752,27.7916402 34.8943384,29.5760946 34.139815,34.9618799" id="Shape"></path>
                        <path d="M41,55 C41,55 41.2552019,57.0044292 39.4670077,57.9525245" id="Shape"></path>
                        <path d="M50.926623,58 C50.926623,58 51.2368685,59.9861902 49.732429,60.9356634" id="Shape"></path>
                        <path d="M57,60 C57,60 57.1781578,61.4673829 56.2925455,62.7276558" id="Shape"></path>
                        <path d="M36.0236396,1 C36.0236396,1 35.7281145,5.67272003 37.2268491,6.66646592 C38.7255838,7.6602118 39,6.11673415 39,6.11673415" id="Shape"></path>
                        <path d="M41.0008792,3.79978885 C38.9647994,4.08883738 40.4783029,8.26140923 41.1795697,9.18747489 C43.0185935,11.4864614 44.5667694,9.26657008 43.7284883,7.76298395" id="Shape"></path>
                        <path d="M29.0865806,33.7599193 C31.7733791,35.3654737 33.4277939,32.6486486 32.9336411,29.4504505 L32.4102079,28.3896513" id="Shape"></path>
                        <path d="M64,27 C64,27 64,30.7053571 64.734375,31.7767857 L65,32" id="Shape"></path>
                        <path d="M58,52 C58,52 65.1941606,55.4606742 72,56" id="Shape"></path>
                        <path d="M1,15 C1,15 6.09677419,19.5317647 14.7849462,18.5152941 C14.7849462,18.5152941 18.1182796,33.8470588 31,42" id="Shape"></path>
                        <path d="M15,18 C13.9503722,21.4774729 6,20.9747057 6,20.9747057" id="Shape"></path>
                        <path d="M14,19 C18.4052863,18.2954545 19,10 19,10" id="Shape"></path>
                        <path d="M14.7263137,18 C16.0751215,12.9882904 12,8 12,8" id="Shape"></path>
                        <path d="M21.815739,18.5778298 C21.815739,18.5778298 18.315739,20.5378298 14.815739,18.9698298" id="Shape" transform="translate(18.315739, 19.077830) rotate(13.000000) translate(-18.315739, -19.077830) "></path>
                        <circle id="Oval" cx="0.5" cy="13.5" r="1"></circle>
                        <circle id="Oval" cx="5.5" cy="20.5" r="1"></circle>
                        <circle id="Oval" cx="11.5" cy="23.5" r="1"></circle>
                        <circle id="Oval" cx="11.5" cy="7.5" r="1"></circle>
                        <circle id="Oval" cx="9.5" cy="14.5" r="1"></circle>
                        <circle id="Oval" cx="22.5" cy="10.5" r="1"></circle>
                        <circle id="Oval" cx="19.5" cy="9.5" r="1"></circle>
                        <circle id="Oval" cx="22.5" cy="19.5" r="1"></circle>
                        <path d="M15,18 C15,18 21.4680851,17.0551181 22,12" id="Shape"></path>
                        <path d="M10,24 C10,24 15.4531961,22.4062417 15.0121961,18.6107872" id="Shape"></path>
                        <path d="M13.8589012,19.323189 C13.8589012,19.323189 10.8176646,17.487746 10.8593254,14.323189" id="Shape" transform="translate(12.358901, 16.823189) rotate(-34.000000) translate(-12.358901, -16.823189) "></path>
                    </g>
                </g>
            </g>
        </g>
    </g>
</svg>